PathFileType	4	(X/Y/Z)	C:\Documents and Settings\user\My Documents\MotionFiles\BioEngCompLab_Data\Delaware\Subject 2\running_3001_smoothed.trc																																																																																																																									
DataRate	CameraRate	NumFrames	NumMarkers	Units	OrigDataRate	OrigDataStartFrame	OrigNumFrames																																																																																																																					
60	60	4	41	mm	60	1	600																																																																																																																					
Frame#	Time	R.ASIS			L.ASIS			V.Sacral			R.Thigh.Upper			R.Thigh.Front			R.Thigh.Rear			L.Thigh.Upper			L.Thigh.Front			L.Thigh.Rear			R.Shank.Upper			R.Shank.Front			R.Shank.Rear			L.Shank.Upper			L.Shank.Front			L.Shank.Rear			R.Heel			R.Midfoot.Sup			R.Midfoot.Lat			R.Toe.Tip			L.Heel			L.Midfoot.Sup			L.Midfoot.Lat			L.Toe.Tip			Sternum			R.Acromium			L.Acromium			R.Bicep			L.Bicep			R.Elbow			L.Elbow			R.Wrist.Med			R.Wrist.Lat			L.Wrist.Med			L.Wrist.Lat			R.Toe.Lat			R.Toe.Med			L.Toe.Lat			L.Toe.Med			R.Temple			L.Temple			Top.Head		
		X1	Y1	Z1	X2	Y2	Z2	X3	Y3	Z3	X4	Y4	Z4	X5	Y5	Z5	X6	Y6	Z6	X7	Y7	Z7	X8	Y8	Z8	X9	Y9	Z9	X10	Y10	Z10	X11	Y11	Z11	X12	Y12	Z12	X13	Y13	Z13	X14	Y14	Z14	X15	Y15	Z15	X16	Y16	Z16	X17	Y17	Z17	X18	Y18	Z18	X19	Y19	Z19	X20	Y20	Z20	X21	Y21	Z21	X22	Y22	Z22	X23	Y23	Z23	X24	Y24	Z24	X25	Y25	Z25	X26	Y26	Z26	X27	Y27	Z27	X28	Y28	Z28	X29	Y29	Z29	X30	Y30	Z30	X31	Y31	Z31	X32	Y32	Z32	X33	Y33	Z33	X34	Y34	Z34	X35	Y35	Z35	X36	Y36	Z36	X37	Y37	Z37	X38	Y38	Z38	X39	Y39	Z39	X40	Y40	Z40	X41	Y41	Z41

1	0.000000	809.009400	1034.518310	-64.610810	797.319820	1044.150150	-312.269740	613.478820	1070.333860	-198.848800	616.770750	750.792910	-33.308040	661.590330	667.572450	-93.379610	549.990600	677.476680	-49.635730	856.354680	776.038020	-366.090180	953.977600	754.122250	-299.989650	913.785460	658.853520	-348.149260	429.418760	511.113620	-74.794740	437.853360	424.324370	-121.460230	372.164220	449.202060	-75.684720	921.629330	481.763520	-341.561370	998.427120	419.810460	-296.351350	906.899600	411.046750	-337.212340	145.740750	281.695130	-160.596820	221.062870	166.435010	-217.348880	185.069600	163.795380	-116.888210	280.409090	43.085120	-203.103030	880.154600	94.936840	-239.650920	1020.895260	127.979930	-199.023650	1009.728700	97.905000	-294.371610	1150.388060	153.333300	-237.095350	854.191470	1408.019290	-245.842880	807.982060	1494.677730	-8.265640	685.774170	1525.499760	-383.978180	759.018430	1310.966060	93.720250	0.000000	0.000000	0.000000	738.608220	1223.102780	146.234530	438.795990	1346.315310	-438.128020	969.662230	1236.647950	37.343640	945.026790	1261.662230	-12.665130	532.088260	1106.601930	-484.475770	588.134460	1125.353640	-442.983980	216.661420	74.781390	-124.406470	227.341110	91.086650	-235.985580	1085.592530	100.963770	-310.516270	1096.420040	119.513080	-200.629430	928.987730	1600.056400	-164.103550	922.718630	1604.240720	-307.084900	1003.104250	1667.355710	-254.688900	
2	0.017000	811.673460	1035.326290	-66.215320	797.712400	1042.007570	-314.007080	615.482420	1067.936890	-198.112520	626.198910	746.665340	-33.961010	670.839540	664.232670	-94.904120	559.289730	673.592530	-47.754940	853.691590	769.609380	-366.787750	945.805480	743.702270	-295.689420	906.089840	650.197690	-347.100620	432.405490	513.564030	-71.533850	429.881130	427.862150	-120.019810	368.847320	459.109190	-72.857060	920.910400	472.770750	-335.714660	1002.336730	417.123470	-290.997310	914.093630	401.269960	-332.060610	133.275630	324.074830	-154.020100	189.879150	204.470540	-215.572270	153.711900	203.380830	-115.168000	234.991460	78.812290	-204.335530	908.964230	82.973840	-233.397830	1045.202510	128.353960	-194.232070	1031.834470	95.621420	-289.478180	1163.475590	156.017680	-231.905200	854.822200	1412.421020	-249.539050	810.263980	1496.194210	-10.436510	684.929810	1526.971920	-381.430540	758.494200	1314.128170	93.856380	0.000000	0.000000	0.000000	738.885680	1224.739990	145.622880	433.109560	1352.613040	-435.847780	968.921510	1236.616940	35.324510	945.224120	1261.910520	-14.561360	527.071660	1113.203250	-489.029970	583.205810	1130.559080	-447.029480	174.350860	114.111760	-124.666130	187.265590	132.342090	-236.411610	1104.890870	102.557910	-305.601010	1120.375490	126.236830	-195.702130	928.412050	1599.753540	-165.358840	921.770080	1603.575810	-308.535860	1001.655700	1666.826900	-255.993610	
3	0.033000	813.995360	1035.086670	-67.852380	797.871400	1039.102660	-315.700930	616.962650	1064.359380	-197.476940	635.924620	741.149600	-34.422400	681.050720	659.660770	-95.919580	569.969180	667.430910	-46.020760	851.752930	762.937810	-366.671510	939.391170	734.127320	-291.239410	899.846800	641.876400	-345.037600	438.784420	513.698850	-68.426310	425.235660	429.740570	-118.565530	369.204380	467.221620	-69.724600	919.600890	464.104190	-330.039250	1004.496770	413.167820	-285.772950	918.470830	392.095610	-326.823150	124.230740	365.027370	-147.405880	162.707020	241.493970	-212.998550	126.690610	242.274060	-112.612900	193.523270	113.307380	-204.430270	930.183350	72.469630	-227.439320	1062.955930	126.914330	-189.339130	1048.137080	92.652950	-284.692410	1172.616940	156.793150	-226.736860	855.303830	1414.728760	-252.594600	812.032960	1495.736450	-12.064580	684.226140	1526.789060	-379.618070	756.937560	1315.480220	93.782000	0.000000	0.000000	0.000000	737.651730	1224.786620	144.809280	429.531190	1355.188840	-435.601350	967.601200	1231.869260	34.713010	945.271420	1257.421140	-15.339160	524.919490	1116.603880	-493.756320	580.796570	1133.003170	-450.946200	136.427700	152.708360	-123.793720	151.288180	172.386800	-235.771510	1119.006470	102.659030	-300.768400	1137.795040	129.536210	-190.709720	927.828430	1598.222530	-166.465190	920.910160	1601.712280	-309.789520	1000.394290	1665.034420	-257.095310	
4	0.050000	815.616520	1032.950070	-69.485540	797.625000	1034.840330	-317.280400	617.480160	1058.730710	-197.060300	646.143620	733.252930	-34.479290	692.916750	653.009400	-95.975360	582.635930	657.636050	-44.425410	851.247440	755.997070	-365.389370	936.040770	725.914250	-286.725490	896.233220	634.146060	-341.574130	450.558720	510.156770	-65.309840	426.269380	428.930690	-116.642170	375.623930	472.350710	-66.116700	917.520020	455.971130	-324.857120	1003.699100	407.011900	-280.503850	918.493710	383.805540	-321.806640	121.417630	403.129000	-140.751220	143.006290	276.333950	-209.028260	107.731300	279.521390	-108.577080	159.623980	145.298770	-202.453660	937.806820	64.560940	-222.077090	1068.864260	122.460280	-184.334010	1053.788210	88.537880	-280.133180	1174.365720	154.182300	-221.639310	855.491520	1413.415040	-254.605470	812.874760	1492.010860	-12.812360	683.571170	1523.662960	-379.009370	753.823000	1313.613160	93.371690	0.000000	0.000000	0.000000	734.031860	1222.125370	143.725160	429.103360	1351.492800	-438.455960	965.096920	1219.399660	36.427690	944.845830	1245.144530	-14.287630	527.558900	1114.569700	-498.720310	582.531070	1130.725340	-454.567990	106.819270	189.593060	-120.871410	123.029570	209.863390	-233.196840	1123.545780	100.160900	-296.120970	1143.400510	127.049490	-185.666020	927.237240	1594.526120	-167.291380	920.232910	1597.727660	-310.679780	999.473630	1661.020390	-257.817630	
